# xmcd
#
# Track frame offsets:
#	150
#	20910
#	40058
#	58133
#	81077
#	99805
#	128833
#	149988
#	165069
#	179616
#	199144
#	220666
#	247676
#	266211
#	301532
#
# Disc length: 4582 seconds
#
# Revision: 0
# Processed by: cddbd v1.5.1PL0 Copyright (c) Steve Scherf et al.
# Submitted via: EasyCDDAExtractor 8.1.0.1
#
DISCID=cb11e40f
DTITLE=Bruce Springsteen - The Essential CD2
DYEAR=1900
DGENRE=
TTITLE0=Born in the U.S.A.
TTITLE1=Glory Days
TTITLE2=Dancing in the Dark
TTITLE3=Tunnel of Love
TTITLE4=Brilliant Disguise
TTITLE5=Human Touch
TTITLE6=Living Proof
TTITLE7=Lucky Town
TTITLE8=Streets of Philadelphia
TTITLE9=The Ghost of Tom Joad
TTITLE10=The Rising
TTITLE11=Mary's Place
TTITLE12=Lonesome Day
TTITLE13=American Skin 41 Shots
TTITLE14=Land of Hope and Dreams
EXTD=
EXTT0=
EXTT1=
EXTT2=
EXTT3=
EXTT4=
EXTT5=
EXTT6=
EXTT7=
EXTT8=
EXTT9=
EXTT10=
EXTT11=
EXTT12=
EXTT13=
EXTT14=
PLAYORDER=
